# File created by Blade
# Date/Time:  Wed Jan 21 19:03:17 2015
#---------------------------------------------------------
:version 1.10
:name HOM
:units
  mass 1.0
  length 1.000000
  angle deg
:documentation
     Acclaim Skeleton File
:root
   axis xyz
   order TX TY TZ RX RY RZ
   position 0.000000 0.000000 0.000000
   orientation 0 0 0
:bonedata
   begin
      id 1
      name RightUpLeg_dum
      direction -1.000000 0.000000 0.000000
      length 3.693983
      axis 0.0 0.0 0.0 xyz
   end
   begin
      id 2
      name LeftUpLeg_dum
      direction 1.000000 0.000000 0.000000
      length 3.693983
      axis 0.0 0.0 0.0 xyz
   end
   begin
      id 3
      name Spine_dum
      direction 0.000000 1.000000 0.000000
      length 2.392956
      axis 0.0 0.0 0.0 xyz
   end
   begin
      id 4
      name RightUpLeg
      direction 0.000000 -1.000000 0.000000
      length 15.795667
      axis 0.0 0.0 0.0 xyz
      dof rx ry rz
   end
   begin
      id 5
      name RightLeg
      direction 0.000000 -1.000000 0.000000
      length 14.766989
      axis 0.0 0.0 0.0 xyz
      dof rx ry rz
   end
   begin
      id 6
      name RightFoot
      direction 0.000000 -0.258819 0.965926
      length 4.962790
      axis 15.0 0.0 0.0 xyz
      dof rx ry rz
   end
   begin
      id 7
      name RightToeBase
      direction 0.000000 0.000000 1.000000
      length 2.952750
      axis 0.0 0.0 0.0 xyz
      dof rx ry rz
   end
   begin
      id 8
      name LeftUpLeg
      direction 0.000000 -1.000000 0.000000
      length 15.795667
      axis 0.0 0.0 0.0 xyz
      dof rx ry rz
   end
   begin
      id 9
      name LeftLeg
      direction 0.000000 -1.000000 0.000000
      length 14.766989
      axis 0.0 0.0 0.0 xyz
      dof rx ry rz
   end
   begin
      id 10
      name LeftFoot
      direction 0.000000 -0.258819 0.965926
      length 4.962790
      axis 15.0 0.0 0.0 xyz
      dof rx ry rz
   end
   begin
      id 11
      name LeftToeBase
      direction 0.000000 0.000000 1.000000
      length 2.952750
      axis 0.0 0.0 0.0 xyz
      dof rx ry rz
   end
   begin
      id 12
      name Spine
      direction 0.000000 1.000000 0.000000
      length 0.000000
      axis 0.0 0.0 0.0 xyz
      dof rx ry rz
   end
   begin
      id 13
      name Spine_dum1
      direction 0.000000 1.000000 0.000000
      length 13.207411
      axis 0.0 0.0 0.0 xyz
   end
   begin
      id 14
      name Spine_dum2
      direction 0.000000 1.000000 0.000000
      length 13.207411
      axis 0.0 0.0 0.0 xyz
   end
   begin
      id 15
      name Spine_dum3
      direction 0.000000 1.000000 0.000000
      length 19.250100
      axis 0.0 0.0 0.0 xyz
   end
   begin
      id 16
      name RightShoulder
      direction -1.000000 0.000000 0.000000
      length 8.140465
      axis 0.0 0.0 90.0 xyz
      dof rx ry rz
   end
   begin
      id 17
      name RightArm
      direction -1.000000 0.000000 0.000000
      length 10.649840
      axis 0.0 0.0 90.0 xyz
      dof rx ry rz
   end
   begin
      id 18
      name RightForeArm
      direction -1.000000 0.000000 0.000000
      length 8.304624
      axis 0.0 0.0 90.0 xyz
      dof ry rz rx
   end
   begin
      id 19
      name RightHand
      direction -1.000000 0.000000 0.000000
      length 0.000000
      axis 0.0 0.0 90.0 xyz
      dof rx ry rz
   end
   begin
      id 20
      name RightHand_dum1
      direction -1.000000 0.000000 0.000000
      length 3.937000
      axis 0.0 0.0 90.0 xyz
   end
   begin
      id 21
      name RightHand_dum2
      direction 0.000000 0.000000 0.000000
      length 0.000000
      axis 0.0 0.0 90.0 xyz
   end
   begin
      id 22
      name RightHandThumb1
      direction 0.000000 0.000000 1.000000
      length 3.937000
      axis 0.0 0.0 90.0 xyz
      dof rx rz ry
   end
   begin
      id 23
      name LeftShoulder
      direction 1.000000 0.000000 0.000000
      length 8.140465
      axis 0.0 0.0 -90.0 xyz
      dof rx ry rz
   end
   begin
      id 24
      name LeftArm
      direction 1.000000 0.000000 0.000000
      length 10.649840
      axis 0.0 0.0 -90.0 xyz
      dof rx ry rz
   end
   begin
      id 25
      name LeftForeArm
      direction 1.000000 0.000000 0.000000
      length 8.304624
      axis 0.0 0.0 -90.0 xyz
      dof ry rz rx
   end
   begin
      id 26
      name LeftHand
      direction 1.000000 0.000000 0.000000
      length 0.000000
      axis 0.0 0.0 -90.0 xyz
      dof rx ry rz
   end
   begin
      id 27
      name LeftHand_dum1
      direction 1.000000 0.000000 0.000000
      length 3.937000
      axis 0.0 0.0 -90.0 xyz
   end
   begin
      id 28
      name LeftHand_dum2
      direction 0.000000 0.000000 0.000000
      length 0.000000
      axis 0.0 0.0 -90.0 xyz
   end
   begin
      id 29
      name LeftHandThumb1
      direction 0.000000 0.000000 1.000000
      length 3.937000
      axis 0.0 0.0 -90.0 xyz
      dof rx rz ry
   end
   begin
      id 30
      name Head
      direction 0.000000 1.000000 0.000000
      length 4.527550
      axis 0.0 0.0 0.0 xyz
      dof rx ry rz
   end
:hierarchy
   begin
      root RightUpLeg_dum LeftUpLeg_dum Spine_dum
      RightUpLeg_dum RightUpLeg
      LeftUpLeg_dum LeftUpLeg
      Spine_dum Spine
      RightUpLeg RightLeg
      RightLeg RightFoot
      RightFoot RightToeBase
      LeftUpLeg LeftLeg
      LeftLeg LeftFoot
      LeftFoot LeftToeBase
      Spine Spine_dum1 Spine_dum2 Spine_dum3
      Spine_dum1 RightShoulder
      Spine_dum2 LeftShoulder
      Spine_dum3 Head
      RightShoulder RightArm
      RightArm RightForeArm
      RightForeArm RightHand
      RightHand RightHand_dum1 RightHand_dum2
      RightHand_dum2 RightHandThumb1
      LeftShoulder LeftArm
      LeftArm LeftForeArm
      LeftForeArm LeftHand
      LeftHand LeftHand_dum1 LeftHand_dum2
      LeftHand_dum2 LeftHandThumb1
   end

# File created by Blade
# Date/Time:  Wed Jan 21 19:03:07 2015
# Frame Rate: 120.000 fps
#------------------------------------------------------
:FULLY-SPECIFIED
:DEGREES
1353
root -3.990451 29.942538 -6.686856 119.912917 -10.381124 6.951949
RightUpLeg -121.965647 -24.197501 22.187886
RightLeg -12.332580 -0.000000 0.000000
RightFoot 0.784386 -3.155757 42.798369
RightToeBase 22.593545 -0.000000 -0.000000
LeftUpLeg -111.691810 6.857142 -23.566859
LeftLeg -7.807461 -0.000000 0.000000
LeftFoot 2.717922 -5.884658 -22.458802
LeftToeBase 4.654767 -0.000000 -0.000000
Spine 56.275335 -16.026050 3.647714
RightShoulder 3.108166 46.856238 -48.305533
RightArm 35.553039 18.976175 95.326554
RightForeArm 4.401764 0.000000 91.914064
RightHand 28.663903 -0.000000 -64.074254
RightHandThumb1 -24.326973 -0.000000 -32.862282
LeftShoulder 11.206110 40.515319 4.242821
LeftArm 148.399698 -46.708217 -98.637919
LeftForeArm 5.602233 -0.000000 78.388943
LeftHand -38.363394 -0.000000 73.613119
LeftHandThumb1 -26.253704 0.000000 33.147579
Head -40.988600 -10.583836 -30.430362
1354
root -3.991455 29.938842 -6.666007 119.864840 -10.396299 6.916937
RightUpLeg -121.923567 -24.090465 22.295463
RightLeg -12.360733 -0.000000 0.000000
RightFoot 0.918130 -3.041445 42.911391
RightToeBase 22.476496 -0.000000 -0.000000
LeftUpLeg -111.644486 6.852350 -23.730832
LeftLeg -7.777780 -0.000000 0.000000
LeftFoot 2.725906 -6.066411 -22.479099
LeftToeBase 4.583459 -0.000000 -0.000000
Spine 56.487997 -16.029527 3.601518
RightShoulder 2.952596 46.753118 -48.558005
RightArm 35.545182 19.035682 95.238976
RightForeArm 4.422187 -0.000000 92.165882
RightHand 28.625280 0.000000 -63.859799
RightHandThumb1 -24.326973 -0.000000 -32.862282
LeftShoulder 11.130387 40.472975 4.165939
LeftArm 148.562687 -46.834892 -98.769270
LeftForeArm 5.399836 0.000000 78.506681
LeftHand -38.301815 -0.000000 73.238037
LeftHandThumb1 -26.253704 0.000000 33.147579
Head -40.901911 -10.660683 -30.517268
1355
root -3.991740 29.936625 -6.649466 119.822163 -10.407056 6.899742
RightUpLeg -121.887157 -24.003016 22.396627
RightLeg -12.396009 -0.000000 0.000000
RightFoot 0.991852 -2.971223 42.865155
RightToeBase 22.573974 -0.000000 -0.000000
LeftUpLeg -111.581348 6.883444 -23.765054
LeftLeg -7.770823 -0.000000 0.000000
LeftFoot 2.697802 -6.131667 -22.492963
LeftToeBase 4.594279 -0.000000 -0.000000
Spine 56.656677 -16.012609 3.592890
RightShoulder 2.800355 46.543466 -48.792024
RightArm 35.583887 19.090483 95.127714
RightForeArm 4.673478 -0.000000 92.394237
RightHand 28.791478 0.000000 -63.701577
RightHandThumb1 -24.326973 -0.000000 -32.862282
LeftShoulder 11.104143 40.441685 4.163717
LeftArm 148.630355 -46.950342 -98.868022
LeftForeArm 5.230919 -0.000000 78.693566
LeftHand -38.286500 -0.000000 72.746571
LeftHandThumb1 -26.253704 0.000000 33.147579
Head -40.751110 -10.769090 -30.580161
1356
root -3.991918 29.936350 -6.636269 119.766219 -10.412615 6.900499
RightUpLeg -121.857206 -23.926007 22.519212
RightLeg -12.427017 -0.000000 0.000000
RightFoot 1.140444 -2.873769 42.975320
RightToeBase 22.483875 -0.000000 -0.000000
LeftUpLeg -111.500037 6.923745 -23.738424
LeftLeg -7.778557 -0.000000 0.000000
LeftFoot 2.669720 -6.099605 -22.579748
LeftToeBase 4.720176 -0.000000 -0.000000
Spine 56.797190 -16.008736 3.596630
RightShoulder 2.727590 46.374832 -48.940671
RightArm 35.595498 19.153415 94.966244
RightForeArm 4.839900 -0.000000 92.602562
RightHand 28.756952 -0.000000 -63.505202
RightHandThumb1 -24.326973 -0.000000 -32.862282
LeftShoulder 11.131062 40.375692 4.252884
LeftArm 148.559481 -47.052277 -98.997937
LeftForeArm 5.113009 -0.000000 78.927428
LeftHand -38.205071 0.000000 72.340741
LeftHandThumb1 -26.253704 0.000000 33.147579
Head -40.407870 -10.833945 -30.643328
1357
root -3.992479 29.934282 -6.623453 119.738036 -10.420498 6.895239
RightUpLeg -121.848869 -23.843888 22.640636
RightLeg -12.457850 -0.000000 0.000000
RightFoot 1.225757 -2.784025 42.904279
RightToeBase 22.548406 -0.000000 -0.000000
LeftUpLeg -111.444378 6.964387 -23.700285
LeftLeg -7.773718 -0.000000 0.000000
LeftFoot 2.640204 -6.090787 -22.550625
LeftToeBase 4.610941 -0.000000 -0.000000
Spine 56.896399 -16.017914 3.603455
RightShoulder 2.675099 46.291593 -49.057766
RightArm 35.575943 19.168557 94.796128
RightForeArm 5.009239 -0.000000 92.757676
RightHand 28.695742 -0.000000 -63.459422
RightHandThumb1 -24.326973 -0.000000 -32.862282
LeftShoulder 11.109993 40.353922 4.230195
LeftArm 148.629811 -47.187573 -99.063690
LeftForeArm 5.141157 -0.000000 78.995650
LeftHand -38.393822 -0.000000 72.526213
LeftHandThumb1 -26.253704 0.000000 33.147579
Head -40.165604 -11.020401 -30.764493
1358
root -3.992880 29.934226 -6.613927 119.681971 -10.407530 6.907713
RightUpLeg -121.807368 -23.790383 22.755646
RightLeg -12.499103 -0.000000 0.000000
RightFoot 1.330088 -2.710329 43.000787
RightToeBase 22.556872 -0.000000 -0.000000
LeftUpLeg -111.408149 6.979578 -23.694097
LeftLeg -7.721311 -0.000000 0.000000
LeftFoot 2.648447 -6.134128 -22.585060
LeftToeBase 4.536829 -0.000000 -0.000000
Spine 56.989854 -16.024344 3.642279
RightShoulder 2.685972 46.192192 -49.157360
RightArm 35.539435 19.244564 94.608281
RightForeArm 5.154156 -0.000000 92.915086
RightHand 28.663501 -0.000000 -63.399208
RightHandThumb1 -24.326973 -0.000000 -32.862282
LeftShoulder 11.137795 40.343038 4.279481
LeftArm 148.680568 -47.336421 -99.191610
LeftForeArm 4.912241 -0.000000 79.070490
LeftHand -38.303257 -0.000000 72.531586
LeftHandThumb1 -26.253704 0.000000 33.147579
Head -39.607380 -10.962691 -30.911745
